<mxfile host="app.diagrams.net" modified="2022-08-26T14:57:32.266Z" agent="5.0 (Windows NT 10.0; Win64; x64) AppleWebKit/537.36 (KHTML, like Gecko) Chrome/104.0.0.0 Safari/537.36" etag="TYN7SxRAUcj4Uo4qJyH4" version="20.2.7" type="github">
  <diagram id="iP2V5J9bQ2a397WpdI0f" name="第 1 页">
    <mxGraphModel dx="902" dy="400" grid="1" gridSize="10" guides="1" tooltips="1" connect="1" arrows="1" fold="1" page="1" pageScale="1" pageWidth="827" pageHeight="1169" math="0" shadow="0">
      <root>
        <mxCell id="0" />
        <mxCell id="1" parent="0" />
      </root>
    </mxGraphModel>
  </diagram>
</mxfile>
